<?xml version="1.0" standalone="no"?>
<!DOCTYPE svg PUBLIC "-//W3C//DTD SVG 1.1//EN" "http://www.w3.org/Graphics/SVG/1.1/DTD/svg11.dtd" >
<svg>
<metadata>
Created by FontForge 20120731 at Tue Jul 16 05:07:43 2019
 By www-data
Copyright 1993, 1994 , 2002Adobe Systems Incorporated. All Rights Reserved. ITC Avant Garde Gothic is a registered trademark of International Typeface Corporation.
</metadata>
<defs>
<font id="ITCAvantGardeStd-Demi" horiz-adv-x="602" >
  <font-face 
    font-family="ITC Avant Garde Gothic Std Demi"
    font-weight="600"
    font-stretch="normal"
    units-per-em="1000"
    panose-1="2 11 7 2 2 2 2 2 2 4"
    ascent="740"
    descent="-260"
    x-height="549"
    cap-height="740"
    bbox="-123 -267 1184 998"
    underline-thickness="50"
    underline-position="-50"
    stemh="123"
    stemv="131"
    unicode-range="U+0020-FB02"
  />
<missing-glyph horiz-adv-x="500" 
d="M0 0v700h500v-700h-500zM250 395l170 255h-340zM280 350l170 -255v510zM80 50h340l-170 255zM50 605v-510l170 255z" />
    <glyph glyph-name="fi" unicode="fi" horiz-adv-x="549" 
d="M353 448h-149v-448h-131v448h-68v101h68v31c0 163 124 173 218 174v-101c-33 0 -87 0 -87 -77v-27h280v-549h-131v448zM484 623h-131v117h131v-117z" />
    <glyph glyph-name="fl" unicode="fl" horiz-adv-x="549" 
d="M353 448h-149v-448h-131v448h-68v101h68v31c0 163 124 173 218 174v-101c-33 0 -87 0 -87 -77v-27h149v190h131v-739h-131v448z" />
    <glyph glyph-name=".notdef" horiz-adv-x="500" 
d="M0 0v700h500v-700h-500zM250 395l170 255h-340zM280 350l170 -255v510zM80 50h340l-170 255zM50 605v-510l170 255z" />
    <glyph glyph-name="space" unicode=" " horiz-adv-x="301" 
 />
    <glyph glyph-name="exclam" unicode="!" horiz-adv-x="314" 
d="M225 740v-516h-135v516h135zM225 148v-148h-135v148h135z" />
    <glyph glyph-name="quotedbl" unicode="&#x22;" horiz-adv-x="430" 
d="M180 444h-100v296h100v-296zM351 444h-101v296h101v-296z" />
    <glyph glyph-name="numbersign" unicode="#" 
d="M416 241l-27 -191h-90l26 191h-95l-26 -191h-91l26 191h-112l11 89h114l12 89h-113l11 89h114l25 174h91l-24 -174h94l24 174h92l-25 -174h121l-11 -89h-123l-12 -89h121l-11 -89h-122zM338 330l12 89h-94l-13 -89h95z" />
    <glyph glyph-name="dollar" unicode="$" 
d="M360 811v-96c88 -18 144 -87 144 -183h-123c-3 47 -36 81 -78 81s-76 -34 -76 -78c0 -64 55 -83 142 -114c106 -39 153 -117 153 -191c0 -86 -56 -171 -162 -202v-99h-109v99c-112 15 -169 110 -170 197h135c3 -57 42 -94 87 -94c48 0 83 40 83 85c0 72 -79 100 -151 124
c-55 18 -142 60 -142 181c0 115 78 175 158 194v96h109z" />
    <glyph glyph-name="percent" unicode="%" horiz-adv-x="823" 
d="M32 578v1c0 98 78 175 176 175c99 0 176 -77 176 -176c0 -98 -78 -176 -176 -176c-97 0 -176 78 -176 176zM123 578v-1c0 -47 37 -85 85 -85c47 0 86 37 86 87c0 49 -37 86 -86 86c-48 0 -85 -37 -85 -87zM438 162v1c0 97 78 175 177 175c98 0 176 -78 176 -176
c0 -99 -80 -176 -176 -176c-97 0 -177 76 -177 176zM529 162v-1c0 -48 37 -86 86 -86c48 0 85 38 85 87c0 50 -37 87 -85 87c-50 0 -86 -38 -86 -87zM629 740l-344 -740h-95l344 740h95z" />
    <glyph glyph-name="ampersand" unicode="&#x26;" horiz-adv-x="749" 
d="M566 443h138l-124 -234l132 -135l-89 -88l-114 117c-31 -57 -89 -117 -209 -117c-154 0 -249 97 -249 212s91 175 152 211c-51 53 -78 103 -78 162c0 102 84 183 192 183c109 0 187 -80 187 -177c0 -98 -73 -144 -119 -171l108 -110zM318 646h-1c-36 0 -64 -29 -64 -68
c0 -44 33 -75 56 -100c44 28 75 53 75 100c0 36 -25 68 -66 68zM422 189l-138 139c-57 -31 -89 -69 -90 -117c1 -58 48 -99 111 -99c62 0 93 32 117 77z" />
    <glyph glyph-name="quoteright" unicode="&#x2019;" horiz-adv-x="305" 
d="M24 514l79 226h115l-96 -226h-98z" />
    <glyph glyph-name="parenleft" unicode="(" horiz-adv-x="461" 
d="M421 754v-146c-97 -48 -204 -181 -204 -365c0 -176 101 -311 204 -362v-148c-241 93 -346 317 -346 512c0 192 107 421 346 509z" />
    <glyph glyph-name="parenright" unicode=")" horiz-adv-x="461" 
d="M40 -267v146c97 49 204 181 204 365c0 176 -101 311 -204 363v147c241 -93 346 -317 346 -512c0 -192 -107 -421 -346 -509z" />
    <glyph glyph-name="asterisk" unicode="*" horiz-adv-x="646" 
d="M367 740l-24 -145l115 92l42 -76l-134 -50l135 -50l-46 -80l-114 95l26 -145h-88l24 147l-112 -97l-46 80l135 51l-135 48l43 77l116 -92l-25 145h88z" />
    <glyph glyph-name="plus" unicode="+" horiz-adv-x="600" 
d="M363 505v-189h188v-127h-188v-189h-126v189h-188v127h188v189h126z" />
    <glyph glyph-name="comma" unicode="," horiz-adv-x="305" 
d="M221 148l-91 -226h-110l64 226h137z" />
    <glyph glyph-name="hyphen" unicode="-" horiz-adv-x="277" 
d="M0 350h277v-129h-277v129z" />
    <glyph glyph-name="period" unicode="." horiz-adv-x="305" 
d="M221 148v-148h-137v148h137z" />
    <glyph glyph-name="slash" unicode="/" horiz-adv-x="574" 
d="M71 -100l286 840h146l-285 -840h-147z" />
    <glyph glyph-name="zero" unicode="0" 
d="M35 256v226c0 214 175 272 267 272c104 0 265 -70 265 -270v-228c0 -202 -160 -270 -263 -270c-104 0 -269 68 -269 270zM184 487v-235c0 -67 36 -135 117 -135c83 0 117 78 117 135v236c0 42 -16 135 -118 135c-83 0 -116 -71 -116 -136z" />
    <glyph glyph-name="one" unicode="1" 
d="M238 0v614h-132v126h281v-740h-149z" />
    <glyph glyph-name="two" unicode="2" 
d="M53 0v117c72 65 144 129 216 194c74 65 133 116 134 201c0 73 -46 111 -107 111c-72 0 -102 -65 -103 -141h-143c2 57 11 118 52 173c58 83 154 99 207 99c155 0 243 -107 243 -229c-1 -86 -32 -147 -119 -230c-58 -56 -117 -112 -176 -169h299v-126h-503z" />
    <glyph glyph-name="three" unicode="3" 
d="M211 539h-147c4 161 137 215 233 215c130 0 217 -88 217 -195c0 -91 -61 -134 -99 -155c135 -46 142 -153 142 -186c0 -132 -117 -232 -262 -232c-81 0 -171 32 -217 99c-33 45 -41 100 -43 134h150c4 -47 40 -101 113 -102c72 0 110 50 110 112c0 73 -69 106 -127 106
h-60v111h33c51 0 111 29 111 92c0 45 -26 85 -74 85c-63 0 -78 -51 -80 -84z" />
    <glyph glyph-name="four" unicode="4" 
d="M354 0v134h-342v109l343 497h142v-489h80v-117h-80v-134h-143zM163 251h200v308z" />
    <glyph glyph-name="five" unicode="5" 
d="M122 740h390v-126h-275l-26 -146c22 14 51 31 115 31c167 0 247 -139 247 -248c0 -121 -93 -265 -275 -265c-143 0 -253 89 -273 217h150c16 -51 66 -86 119 -86c70 0 130 59 130 130c0 68 -52 130 -131 130c-35 0 -82 -12 -115 -70l-121 30z" />
    <glyph glyph-name="six" unicode="6" 
d="M285 740h172l-139 -195c-10 -15 -21 -29 -32 -45c8 4 36 11 59 11c113 0 235 -87 235 -250c0 -160 -124 -275 -276 -275c-91 0 -171 35 -218 96c-45 51 -62 123 -62 179c0 78 32 141 67 195zM171 249v-1c0 -79 60 -131 128 -131c74 0 132 57 132 131s-56 132 -131 132
c-66 0 -129 -50 -129 -131z" />
    <glyph glyph-name="seven" unicode="7" 
d="M71 740h459v-115l-277 -625h-164l287 614h-305v126z" />
    <glyph glyph-name="eight" unicode="8" 
d="M68 556v1c0 97 80 197 233 197s233 -99 233 -198c0 -80 -48 -125 -81 -146c74 -33 106 -104 107 -182c-1 -139 -109 -242 -259 -242s-258 103 -259 242c1 78 32 149 107 182c-33 21 -81 66 -81 146zM213 544v-1c0 -49 40 -87 88 -87s88 38 88 88c0 51 -40 88 -88 88
s-88 -37 -88 -88zM191 229v-1c0 -55 44 -111 110 -111s110 56 110 112c0 58 -44 113 -110 113s-110 -55 -110 -113z" />
    <glyph glyph-name="nine" unicode="9" 
d="M319 0h-172l139 195c11 16 22 30 32 45c-8 -4 -36 -11 -59 -11c-114 0 -235 87 -235 250c0 160 123 275 276 275c91 0 170 -35 218 -96c45 -51 62 -123 62 -179c0 -78 -32 -141 -67 -195zM433 492v1c0 78 -60 130 -130 130c-72 0 -130 -56 -130 -130
c0 -75 55 -133 129 -133c68 0 131 50 131 132z" />
    <glyph glyph-name="colon" unicode=":" horiz-adv-x="305" 
d="M221 549v-148h-137v148h137zM221 148v-148h-137v148h137z" />
    <glyph glyph-name="semicolon" unicode=";" horiz-adv-x="305" 
d="M221 549v-148h-137v148h137zM222 148l-98 -226h-103l63 226h138z" />
    <glyph glyph-name="less" unicode="&#x3c;" horiz-adv-x="600" 
d="M47 314l506 219v-138l-372 -143l372 -142v-138l-506 219v123z" />
    <glyph glyph-name="equal" unicode="=" horiz-adv-x="600" 
d="M49 439h502v-127h-502v127zM49 192h502v-126h-502v126z" />
    <glyph glyph-name="greater" unicode="&#x3e;" horiz-adv-x="600" 
d="M47 110l372 143l-372 142v138l506 -219v-123l-506 -219v138z" />
    <glyph glyph-name="question" unicode="?" horiz-adv-x="578" 
d="M339 218h-138c1 68 30 117 101 185c50 50 76 81 77 124c0 51 -32 91 -89 91c-59 0 -91 -40 -97 -93c-1 -8 -2 -16 -2 -24h-144c-1 9 -1 15 -1 21c6 142 118 232 251 232c145 0 233 -106 233 -212c0 -89 -60 -144 -115 -195c-67 -64 -74 -95 -76 -129zM339 148v-148h-138
v148h138z" />
    <glyph glyph-name="at" unicode="@" horiz-adv-x="760" 
d="M633 131l22 -69c-90 -63 -211 -77 -256 -77c-272 0 -391 211 -391 380c0 203 156 390 390 390c198 0 351 -136 351 -324c0 -158 -110 -271 -206 -271c-43 0 -82 22 -93 72c-31 -49 -67 -71 -121 -71c-72 0 -143 61 -143 165c0 112 84 238 200 238c56 0 88 -29 101 -65
l13 52h85l-52 -232c-2 -10 -8 -36 -8 -48c-2 -28 16 -35 34 -35c46 0 113 79 113 194c0 154 -124 251 -270 251c-181 0 -311 -148 -311 -317c0 -114 73 -305 307 -305c81 0 168 22 235 72zM273 329v-1c0 -69 43 -91 77 -91c53 0 84 44 99 85c7 21 18 56 18 82
c0 44 -26 83 -71 83c-64 0 -123 -76 -123 -158z" />
    <glyph glyph-name="A" unicode="A" horiz-adv-x="740" 
d="M223 145l-53 -145h-162l300 740h131l293 -740h-163l-54 145h-292zM475 264l-108 300l-105 -300h213z" />
    <glyph glyph-name="B" unicode="B" horiz-adv-x="620" 
d="M70 0v740h243c72 0 128 -15 166 -44c50 -33 72 -87 72 -148c0 -68 -35 -121 -91 -152c124 -42 129 -146 129 -178c0 -67 -28 -130 -80 -166c-59 -45 -106 -52 -211 -52h-228zM219 609v-165h83c21 0 45 2 64 10c29 15 42 39 42 74c0 38 -20 61 -41 70c-17 8 -39 11 -66 11
h-82zM219 319v-188h105c19 0 46 1 69 11c30 13 53 38 53 85c0 43 -22 69 -52 82c-24 10 -49 10 -75 10h-100z" />
    <glyph glyph-name="C" unicode="C" horiz-adv-x="820" 
d="M631 248h157c-45 -153 -189 -262 -362 -262c-226 0 -388 179 -388 385c0 197 153 383 387 383c213 -1 334 -158 363 -266h-157c-23 51 -89 134 -207 135c-144 0 -237 -121 -237 -252c0 -135 97 -254 238 -254c132 0 192 104 206 131z" />
    <glyph glyph-name="D" unicode="D" horiz-adv-x="732" 
d="M70 0v740h235c92 0 226 -9 314 -128c54 -68 76 -150 76 -241c0 -209 -110 -371 -379 -371h-246zM219 609v-478h105c160 0 222 105 222 238c0 58 -15 120 -50 166c-31 40 -81 74 -171 74h-106z" />
    <glyph glyph-name="E" unicode="E" horiz-adv-x="533" 
d="M70 0v740h415v-131h-266v-168h261v-131h-261v-179h266v-131h-415z" />
    <glyph glyph-name="F" unicode="F" horiz-adv-x="499" 
d="M70 0v740h393v-131h-244v-177h238v-131h-238v-301h-149z" />
    <glyph glyph-name="G" unicode="G" horiz-adv-x="854" 
d="M791 513h-168c-15 23 -33 44 -55 61c-38 30 -85 49 -142 49c-119 0 -240 -90 -240 -251c0 -167 122 -255 240 -255c59 0 109 17 147 45c39 28 65 68 76 112h-276v120h448c2 -49 -5 -124 -33 -186c-69 -154 -228 -222 -361 -222c-221 0 -390 171 -390 386
c0 221 176 382 392 382c167 0 314 -106 362 -241z" />
    <glyph glyph-name="H" unicode="H" horiz-adv-x="722" 
d="M219 0h-149v740h149v-297h285v297h149v-740h-149v312h-285v-312z" />
    <glyph glyph-name="I" unicode="I" horiz-adv-x="288" 
d="M70 0v740h149v-740h-149z" />
    <glyph glyph-name="J" unicode="J" horiz-adv-x="547" 
d="M477 740v-467c0 -79 -7 -126 -23 -163c-15 -31 -44 -63 -74 -82c-43 -29 -94 -42 -141 -42c-32 0 -197 11 -228 179c-3 15 -4 32 -5 49h159c0 -7 1 -13 2 -20c11 -48 41 -77 79 -77c41 1 63 23 72 48c9 23 10 49 10 72v503h149z" />
    <glyph glyph-name="K" unicode="K" horiz-adv-x="664" 
d="M88 0v740h149v-343l245 343h157l-268 -369l295 -371h-182l-247 332v-332h-149z" />
    <glyph glyph-name="L" unicode="L" horiz-adv-x="471" 
d="M73 0v740h149v-609h243v-131h-392z" />
    <glyph glyph-name="M" unicode="M" horiz-adv-x="920" 
d="M207 0h-137v740h201l190 -531l187 531h202v-740h-138l4 593l-207 -593h-98l-208 593z" />
    <glyph glyph-name="N" unicode="N" horiz-adv-x="754" 
d="M203 740l340 -513l-3 513h143v-740h-132l-341 512l3 -512h-143v740h133z" />
    <glyph glyph-name="O" unicode="O" horiz-adv-x="851" 
d="M37 363v1c0 237 182 390 388 390c224 0 389 -174 389 -384s-164 -384 -390 -384c-227 0 -387 179 -387 377zM186 371v-1c0 -135 97 -253 241 -253c150 0 238 130 238 252c0 124 -88 254 -239 254c-148 0 -240 -122 -240 -252z" />
    <glyph glyph-name="P" unicode="P" horiz-adv-x="605" 
d="M67 740h224c125 0 175 -18 218 -51c54 -44 84 -116 84 -189s-31 -149 -78 -187c-50 -41 -100 -59 -208 -59h-91v-254h-149v740zM216 609v-224h88c34 0 67 3 97 19c27 14 49 47 49 94s-22 78 -51 92c-30 16 -64 19 -101 19h-82z" />
    <glyph glyph-name="Q" unicode="Q" horiz-adv-x="870" 
d="M863 107v-120c-17 0 -34 0 -52 1c-94 4 -141 37 -168 60c-73 -47 -148 -62 -213 -62c-238 0 -390 189 -390 381c0 201 156 387 388 387s392 -182 392 -380c0 -132 -53 -201 -78 -233c32 -24 65 -31 121 -34zM429 623h-1c-114 0 -207 -77 -230 -197c-2 -23 -2 -39 0 -53
c26 8 68 23 124 23c61 0 115 -13 173 -51c45 -30 70 -53 131 -109c29 35 45 84 45 138c0 150 -111 249 -242 249zM429 117h1c45 0 86 13 107 27c-22 26 -63 61 -78 73c-48 37 -101 52 -152 52c-42 0 -69 -8 -91 -16c46 -103 149 -136 213 -136z" />
    <glyph glyph-name="R" unicode="R" horiz-adv-x="628" 
d="M67 0v740h224c115 0 181 -18 221 -47c61 -44 94 -119 94 -201c0 -54 -15 -102 -40 -138c-32 -47 -74 -68 -122 -80l165 -274h-156l-199 344h29c49 0 102 3 133 27c29 24 47 63 47 108s-22 86 -55 107c-27 17 -63 23 -105 23h-87v-609h-149z" />
    <glyph glyph-name="S" unicode="S" horiz-adv-x="559" 
d="M30 230h148c5 -100 72 -119 104 -119c57 0 101 46 101 98c0 63 -53 79 -156 120c-56 20 -185 66 -185 206c0 142 125 219 245 219c98 0 228 -52 234 -216h-147c-6 34 -19 91 -92 91c-49 0 -91 -34 -91 -84c-1 -55 39 -69 164 -121c113 -49 176 -103 176 -208
c0 -119 -73 -230 -247 -230c-168 0 -255 101 -254 244z" />
    <glyph glyph-name="T" unicode="T" horiz-adv-x="485" 
d="M169 0v609h-160v131h468v-131h-159v-609h-149z" />
    <glyph glyph-name="U" unicode="U" horiz-adv-x="675" 
d="M68 740h149v-455c0 -37 1 -75 21 -112c18 -32 51 -56 100 -56c50 0 83 23 99 53c21 36 21 75 21 115v455h149v-455c0 -110 -21 -176 -78 -228c-45 -43 -108 -71 -190 -71c-53 0 -138 14 -193 71c-68 65 -78 129 -78 228v455z" />
    <glyph glyph-name="V" unicode="V" horiz-adv-x="708" 
d="M278 0l-264 740h154l185 -562l187 562h154l-265 -740h-151z" />
    <glyph glyph-name="W" unicode="W" horiz-adv-x="958" 
d="M211 0l-196 740h152l126 -536l129 536h114l130 -537l125 537h151l-200 -740h-134l-130 525l-129 -525h-138z" />
    <glyph glyph-name="X" unicode="X" horiz-adv-x="708" 
d="M10 0l257 389l-232 351h169l151 -242l149 242h168l-230 -354l256 -386h-170l-179 284l-172 -284h-167z" />
    <glyph glyph-name="Y" unicode="Y" horiz-adv-x="624" 
d="M238 0v265l-227 475h161l140 -336l141 336h160l-226 -475v-265h-149z" />
    <glyph glyph-name="Z" unicode="Z" horiz-adv-x="499" 
d="M480 621l-281 -490h287v-131h-469v97l296 512h-300v131h467v-119z" />
    <glyph glyph-name="bracketleft" unicode="[" horiz-adv-x="461" 
d="M389 -99v-107h-283v946h283v-108h-156v-731h156z" />
    <glyph glyph-name="backslash" unicode="\" horiz-adv-x="574" 
d="M357 -100l-286 840h146l286 -840h-146z" />
    <glyph glyph-name="bracketright" unicode="]" horiz-adv-x="461" 
d="M71 -206v107h157v731h-157v108h284v-946h-284z" />
    <glyph glyph-name="asciicircum" unicode="^" horiz-adv-x="600" 
d="M60 375l174 365h132l174 -365h-143l-98 250l-97 -250h-142z" />
    <glyph glyph-name="underscore" unicode="_" horiz-adv-x="500" 
d="M500 -125h-500v50h500v-50z" />
    <glyph glyph-name="quoteleft" unicode="&#x2018;" horiz-adv-x="305" 
d="M202 740l79 -226h-99l-95 226h115z" />
    <glyph glyph-name="a" unicode="a" horiz-adv-x="696" 
d="M631 549v-549h-131v79c-35 -64 -108 -96 -185 -96c-176 0 -279 137 -279 292c0 173 125 291 279 291c100 0 161 -53 185 -97v80h131zM167 273v-1c0 -68 49 -167 167 -167c73 0 121 38 146 88c13 24 19 50 21 77c1 26 -4 53 -15 77c-23 52 -74 97 -153 97
c-106 0 -166 -86 -166 -171z" />
    <glyph glyph-name="b" unicode="b" horiz-adv-x="688" 
d="M65 0v740h131v-193v-66c54 67 133 85 183 85c130 0 274 -95 274 -289c0 -186 -130 -294 -280 -294c-86 0 -153 42 -182 96v-79h-126zM522 275v1c0 90 -69 168 -165 168c-102 0 -166 -80 -166 -169c0 -92 64 -170 163 -170c107 0 168 85 168 170z" />
    <glyph glyph-name="c" unicode="c" horiz-adv-x="644" 
d="M477 200h134c-31 -122 -140 -217 -282 -217c-174 0 -294 135 -294 292c0 162 125 291 289 291c138 0 255 -87 287 -221h-134c-23 58 -76 99 -148 99c-48 1 -85 -16 -117 -47c-28 -30 -45 -74 -45 -122c0 -99 69 -169 162 -169c82 0 128 49 148 94z" />
    <glyph glyph-name="d" unicode="d" horiz-adv-x="693" 
d="M627 740v-740h-125v79c-24 -41 -76 -96 -188 -96c-169 0 -278 132 -278 292c0 178 127 291 276 291c105 0 164 -56 184 -88v80v182h131zM167 276v-1c0 -93 67 -169 168 -169c48 0 91 19 122 50s49 74 47 122c0 48 -19 89 -49 118c-30 30 -72 48 -119 48
c-107 0 -169 -82 -169 -168z" />
    <glyph glyph-name="e" unicode="e" horiz-adv-x="639" 
d="M604 231h-442c6 -88 84 -137 159 -136c64 0 107 29 132 74h135c-26 -61 -65 -107 -111 -138c-46 -32 -100 -48 -157 -48c-169 0 -290 137 -290 290c0 156 122 293 288 293c82 0 154 -31 205 -84c67 -69 92 -155 81 -251zM164 331h311c-5 52 -60 125 -156 124
c-97 0 -150 -70 -155 -124z" />
    <glyph glyph-name="f" unicode="f" horiz-adv-x="301" 
d="M73 0v448h-68v101h68v31c0 163 124 173 218 174v-101c-33 0 -87 0 -87 -77v-27h87v-101h-87v-448h-131z" />
    <glyph glyph-name="g" unicode="g" horiz-adv-x="688" 
d="M626 549v-484c0 -90 -17 -148 -51 -194c-47 -63 -139 -113 -252 -113c-171 0 -253 102 -273 187h152c12 -25 33 -44 57 -56c27 -15 56 -19 72 -19c78 0 163 54 163 165v46c-27 -49 -85 -98 -178 -98c-158 0 -280 120 -280 289c0 179 128 293 280 293
c79 0 147 -36 178 -90v74h132zM167 276v-1c0 -96 69 -169 164 -169c49 0 88 17 117 47c29 29 46 70 47 117c0 42 -13 86 -40 118c-26 33 -67 55 -124 55c-89 0 -164 -69 -164 -167z" />
    <glyph glyph-name="h" unicode="h" horiz-adv-x="634" 
d="M65 0v740h131v-178v-78c31 58 97 83 162 82c85 0 138 -29 170 -77c33 -48 43 -113 43 -187v-302h-131v296c0 42 -7 78 -25 104c-19 26 -49 43 -95 43c-52 0 -83 -21 -101 -48s-23 -60 -23 -88v-307h-131z" />
    <glyph glyph-name="i" unicode="i" horiz-adv-x="260" 
d="M65 623v117h131v-117h-131zM65 0v549h131v-549h-131z" />
    <glyph glyph-name="j" unicode="j" horiz-adv-x="295" 
d="M89 623v117h131v-117h-131zM220 549v-539c0 -116 -18 -210 -185 -216h-34v102h19c66 5 69 55 69 110v543h131z" />
    <glyph glyph-name="k" unicode="k" horiz-adv-x="560" 
d="M69 0v740h131v-400l189 209h157l-228 -242l229 -307h-150l-197 274v-274h-131z" />
    <glyph glyph-name="l" unicode="l" horiz-adv-x="260" 
d="M65 0v740h131v-740h-131z" />
    <glyph glyph-name="m" unicode="m" horiz-adv-x="964" 
d="M65 0v549h123v-69c12 25 65 86 160 86c45 0 95 -13 135 -56c12 -13 26 -36 33 -50c10 17 22 35 40 52c34 32 82 54 140 54c46 0 104 -12 146 -55c50 -52 60 -97 60 -210v-301h-131v296c0 35 -3 73 -22 102c-14 27 -40 45 -86 45s-78 -20 -95 -50s-19 -59 -19 -92v-301
h-131v301c0 32 -3 63 -17 91c-16 29 -43 50 -90 51c-48 0 -78 -23 -94 -51c-16 -29 -21 -63 -21 -95v-297h-131z" />
    <glyph glyph-name="n" unicode="n" horiz-adv-x="634" 
d="M65 0v549h123c0 -24 0 -47 -1 -73c24 43 73 91 171 90c179 -1 213 -138 213 -235v-331h-131v298c0 82 -27 145 -119 145c-93 -1 -125 -63 -125 -140v-303h-131z" />
    <glyph glyph-name="o" unicode="o" horiz-adv-x="660" 
d="M36 275v1c0 140 103 289 294 289s294 -149 294 -290c0 -142 -103 -291 -294 -291s-294 149 -294 291zM167 275v-1c0 -96 73 -167 163 -167s162 71 162 168s-72 168 -162 168s-163 -71 -163 -168z" />
    <glyph glyph-name="p" unicode="p" horiz-adv-x="692" 
d="M65 -192v741h123v-80c39 55 103 97 194 97c192 0 273 -163 273 -296c0 -156 -111 -287 -272 -287c-107 0 -165 55 -187 90v-73v-192h-131zM524 274v1c0 79 -57 169 -168 169c-48 0 -89 -19 -119 -50c-29 -30 -47 -73 -47 -121c0 -47 18 -89 48 -119s72 -49 119 -49
c100 0 167 79 167 169z" />
    <glyph glyph-name="q" unicode="q" horiz-adv-x="692" 
d="M627 549v-741h-131v192v77c-23 -37 -78 -94 -189 -94c-161 0 -271 128 -271 283c0 180 121 300 279 300c109 0 164 -59 186 -96v79h126zM167 272v-1c0 -80 62 -165 168 -165c46 0 88 19 118 49s48 72 48 118c2 47 -16 90 -46 121c-31 31 -75 50 -121 50
c-109 0 -167 -87 -167 -172z" />
    <glyph glyph-name="r" unicode="r" horiz-adv-x="348" 
d="M64 0v549h124v-72c24 49 69 88 152 89v-132h-6c-92 0 -139 -43 -139 -138v-296h-131z" />
    <glyph glyph-name="s" unicode="s" horiz-adv-x="481" 
d="M432 401h-129c-1 29 -16 59 -67 59c-44 0 -65 -28 -65 -55c1 -35 41 -54 93 -69c88 -24 183 -50 184 -168c2 -113 -93 -185 -208 -185c-85 0 -200 44 -210 177h131c5 -59 56 -71 81 -71c41 0 76 27 75 64c0 47 -41 60 -142 95c-74 23 -134 64 -135 143
c0 108 91 175 197 175c74 0 184 -33 195 -165z" />
    <glyph glyph-name="t" unicode="t" horiz-adv-x="337" 
d="M101 0v448h-91v101h91v191h131v-191h94v-101h-94v-448h-131z" />
    <glyph glyph-name="u" unicode="u" horiz-adv-x="636" 
d="M571 549v-549h-123v73c-23 -43 -72 -91 -171 -90c-180 1 -214 138 -214 234v332h131v-299c0 -81 27 -145 120 -144c94 0 126 62 126 140v303h131z" />
    <glyph glyph-name="v" unicode="v" horiz-adv-x="564" 
d="M550 549l-204 -549h-128l-204 549h136l132 -384l132 384h136z" />
    <glyph glyph-name="w" unicode="w" horiz-adv-x="827" 
d="M184 0l-176 549h136l109 -382l105 364h111l107 -364l107 382h136l-176 -549h-123l-108 371l-105 -371h-123z" />
    <glyph glyph-name="x" unicode="x" horiz-adv-x="574" 
d="M3 0l203 289l-185 260h158l107 -169l107 169h156l-184 -260l205 -289h-161l-123 189l-124 -189h-159z" />
    <glyph glyph-name="y" unicode="y" horiz-adv-x="551" 
d="M121 -192l90 213l-207 528h140l134 -365l132 365h140l-289 -741h-140z" />
    <glyph glyph-name="z" unicode="z" horiz-adv-x="435" 
d="M14 0v91l258 357h-253v101h396v-101l-245 -347h249v-101h-405z" />
    <glyph glyph-name="braceleft" unicode="{" horiz-adv-x="522" 
d="M448 743v-101h-55c-53 0 -59 -34 -59 -77v-203c0 -88 -86 -120 -101 -129c39 -8 101 -39 101 -115v-205c0 -46 6 -78 59 -78h55v-101h-112c-75 0 -136 41 -136 135v205c0 64 -58 84 -92 92v136c30 3 92 27 92 98v209c0 93 61 134 136 134h112z" />
    <glyph glyph-name="bar" unicode="|" horiz-adv-x="555" 
d="M205 750h145v-1000h-145v1000z" />
    <glyph glyph-name="braceright" unicode="}" horiz-adv-x="522" 
d="M74 642v101h112c74 0 135 -41 135 -134v-209c0 -71 63 -95 93 -98v-136c-34 -8 -93 -28 -93 -92v-205c0 -94 -61 -135 -135 -135h-112v101h54c54 0 59 32 59 78v205c1 76 89 110 101 118c-40 10 -100 38 -101 126v203c0 43 -5 77 -59 77h-54z" />
    <glyph glyph-name="asciitilde" unicode="~" horiz-adv-x="600" 
d="M499 355l31 -123c-30 -43 -64 -84 -119 -84c-38 0 -71 16 -105 34s-72 36 -115 36c-41 0 -68 -29 -90 -68l-32 122c25 45 64 85 126 84c36 0 75 -16 113 -33c37 -16 75 -36 103 -36c40 0 64 35 88 68z" />
    <glyph glyph-name="exclamdown" unicode="&#xa1;" horiz-adv-x="314" 
d="M90 401v148h135v-148h-135zM90 -191v516h135v-516h-135z" />
    <glyph glyph-name="cent" unicode="&#xa2;" 
d="M360 33h-110v106c-144 39 -186 157 -186 233c0 88 51 203 186 237v103h106v-100c105 -27 166 -107 183 -180h-137c-22 40 -62 54 -95 54c-63 0 -112 -50 -112 -112c0 -59 44 -112 112 -112c53 0 79 29 92 48h140c-24 -81 -90 -153 -179 -171v-106z" />
    <glyph glyph-name="sterling" unicode="&#xa3;" 
d="M411 411v-106h-119c22 -23 51 -54 51 -101c0 -28 -15 -56 -41 -86h54c33 0 56 4 76 18c23 19 37 43 37 76c0 13 -2 22 -7 39h128c4 -15 10 -29 10 -60c0 -41 -19 -89 -50 -125c-37 -39 -86 -66 -174 -66h-334v118h74c38 4 81 19 81 76c0 47 -33 84 -61 111h-124v106h58
c-19 26 -31 60 -32 101c0 120 99 242 259 242c132 0 243 -85 255 -230h-138c-9 43 -39 99 -115 99c-67 0 -111 -54 -112 -114c1 -45 18 -74 38 -98h186z" />
    <glyph glyph-name="fraction" unicode="&#x2044;" horiz-adv-x="180" 
d="M-123 0l315 740h110l-316 -740h-109z" />
    <glyph glyph-name="yen" unicode="&#xa5;" 
d="M576 494v-110h-179l-23 -43v-43h202v-110h-203v-188h-146v188h-201v110h201v41l-23 45h-176v110h120l-139 246h158l134 -265l138 265h155l-138 -246h120z" />
    <glyph glyph-name="florin" unicode="&#x192;" 
d="M403 521h90v-101h-107l-64 -360c-13 -71 -24 -129 -64 -181c-47 -60 -119 -85 -189 -85c-10 0 -37 0 -56 6l21 118c10 -1 16 -3 27 -3c94 0 111 58 123 127l67 378h-90v101h107c11 74 32 131 76 175c37 36 87 58 152 58c10 0 26 -1 38 -3l-17 -106c-10 0 -18 -1 -27 -2
c-27 -5 -45 -16 -58 -33c-18 -22 -23 -59 -29 -89z" />
    <glyph glyph-name="section" unicode="&#xa7;" horiz-adv-x="646" 
d="M557 558h-129c-13 66 -64 77 -104 77c-41 0 -90 -19 -90 -73c0 -45 40 -63 69 -77l174 -79c43 -19 124 -59 124 -163c0 -74 -44 -120 -89 -157c31 -33 56 -75 56 -137c0 -105 -80 -208 -237 -208c-87 0 -254 43 -263 233h130c9 -93 78 -112 130 -112c78 0 110 43 111 85
c-1 44 -41 69 -92 92l-177 82c-43 20 -125 57 -125 173c0 28 8 98 97 159c-19 27 -35 61 -35 110c0 132 114 191 224 191c141 0 223 -92 226 -196zM484 222v1c-1 41 -35 62 -78 81l-188 86c-43 -21 -53 -54 -53 -76c0 -43 32 -65 59 -77l208 -96c26 14 51 44 52 81z" />
    <glyph glyph-name="currency" unicode="&#xa4;" 
d="M526 55l-81 81c-41 -29 -91 -46 -144 -46s-102 17 -144 46l-81 -80l-66 65l83 83c-27 40 -43 86 -43 137c0 53 17 102 45 141l-85 84l66 67l86 -85c40 28 88 43 139 43c50 0 99 -15 138 -42l85 83l65 -66l-83 -83c29 -40 46 -89 46 -142c0 -51 -16 -98 -43 -137l83 -82z
M174 342v-1c0 -70 58 -128 127 -128s127 57 127 129c0 70 -56 128 -127 128c-70 0 -127 -58 -127 -128z" />
    <glyph glyph-name="quotesingle" unicode="'" horiz-adv-x="237" 
d="M169 444h-101v296h101v-296z" />
    <glyph glyph-name="quotedblleft" unicode="&#x201c;" horiz-adv-x="509" 
d="M230 740l79 -226h-98l-96 226h115zM391 740l79 -226h-98l-96 226h115z" />
    <glyph glyph-name="guillemotleft" unicode="&#xab;" horiz-adv-x="404" 
d="M30 282l102 185h95l-102 -185l102 -184h-95zM194 282l102 185h95l-102 -185l102 -184h-95z" />
    <glyph glyph-name="guilsinglleft" unicode="&#x2039;" horiz-adv-x="229" 
d="M19 282l102 185h95l-102 -185l102 -185h-95z" />
    <glyph glyph-name="guilsinglright" unicode="&#x203a;" horiz-adv-x="229" 
d="M108 467l102 -185l-102 -185h-96l102 185l-102 185h96z" />
    <glyph glyph-name="endash" unicode="&#x2013;" horiz-adv-x="500" 
d="M35 350h430v-129h-430v129z" />
    <glyph glyph-name="dagger" unicode="&#x2020;" horiz-adv-x="646" 
d="M389 740v-186h163v-113h-163v-649h-131v649h-164v113h164v186h131z" />
    <glyph glyph-name="daggerdbl" unicode="&#x2021;" horiz-adv-x="646" 
d="M389 740v-157h163v-112h-163v-347h163v-112h-163v-220h-131v220h-164v112h164v347h-164v112h164v157h131z" />
    <glyph glyph-name="periodcentered" unicode="&#xb7;" horiz-adv-x="305" 
d="M221 327v-147h-137v147h137z" />
    <glyph glyph-name="paragraph" unicode="&#xb6;" horiz-adv-x="666" 
d="M214 -109v461c-123 0 -216 61 -216 191c0 176 162 197 249 197h331v-95h-53v-754h-103v753h-105v-753h-103z" />
    <glyph glyph-name="bullet" unicode="&#x2022;" horiz-adv-x="648" 
d="M325 513h1c74 0 134 -62 134 -137c0 -76 -61 -137 -136 -137c-76 0 -136 62 -136 137c0 73 58 137 137 137z" />
    <glyph glyph-name="quotesinglbase" unicode="&#x201a;" horiz-adv-x="305" 
d="M24 -94l79 225h115l-96 -225h-98z" />
    <glyph glyph-name="quotedblbase" unicode="&#x201e;" horiz-adv-x="509" 
d="M39 -94l79 225h114l-95 -225h-98zM200 -94l79 225h114l-95 -225h-98z" />
    <glyph glyph-name="quotedblright" unicode="&#x201d;" horiz-adv-x="509" 
d="M39 514l79 226h114l-95 -226h-98zM200 514l79 226h114l-95 -226h-98z" />
    <glyph glyph-name="guillemotright" unicode="&#xbb;" horiz-adv-x="404" 
d="M273 467l102 -185l-102 -185h-96l102 185l-102 185h96zM108 467l102 -185l-102 -185h-95l102 185l-102 185h95z" />
    <glyph glyph-name="ellipsis" unicode="&#x2026;" horiz-adv-x="1000" 
d="M99 0v148h137v-148h-137zM432 0v148h137v-148h-137zM765 0v148h137v-148h-137z" />
    <glyph glyph-name="perthousand" unicode="&#x2030;" horiz-adv-x="1216" 
d="M32 578v1c0 98 78 175 176 175s175 -77 175 -176c0 -98 -78 -176 -175 -176s-176 78 -176 176zM122 578v-1c0 -47 37 -85 86 -85c47 0 85 37 85 87c0 49 -37 86 -85 86c-49 0 -86 -37 -86 -87zM438 162v1c0 97 78 175 176 175s176 -78 176 -176c0 -99 -79 -176 -176 -176
s-176 76 -176 176zM528 162v-1c0 -48 37 -86 86 -86c48 0 86 38 86 87c0 50 -38 87 -86 87c-50 0 -86 -38 -86 -87zM832 162v1c0 97 78 175 176 175s176 -78 176 -176c0 -99 -80 -176 -176 -176c-97 0 -176 76 -176 176zM922 162v-1c0 -48 37 -86 86 -86c48 0 86 38 86 87
c0 50 -38 87 -86 87c-50 0 -86 -38 -86 -87zM629 740l-345 -740h-94l344 740h95z" />
    <glyph glyph-name="questiondown" unicode="&#xbf;" horiz-adv-x="578" 
d="M239 401v148h138v-148h-138zM239 330h138c-1 -68 -30 -117 -101 -185c-50 -50 -76 -82 -77 -124c0 -51 32 -91 89 -91c59 0 91 40 97 94c1 7 2 15 2 23h144c1 -9 1 -14 0 -20c-5 -143 -117 -233 -250 -233c-145 0 -233 106 -233 212c0 89 60 144 115 195
c67 64 74 95 76 129z" />
    <glyph glyph-name="grave" unicode="`" horiz-adv-x="555" 
d="M161 817l241 -131l-38 -78l-245 116z" />
    <glyph glyph-name="acute" unicode="&#xb4;" horiz-adv-x="555" 
d="M153 692l240 132l43 -95l-244 -116z" />
    <glyph glyph-name="circumflex" unicode="&#x2c6;" horiz-adv-x="555" 
d="M323 786l166 -154h-131l-80 67l-80 -67h-132l169 154h88z" />
    <glyph glyph-name="tilde" unicode="&#x2dc;" horiz-adv-x="555" 
d="M429 762l46 -87c-33 -24 -68 -38 -109 -38c-21 0 -54 8 -84 15c-31 7 -60 14 -79 14c-33 0 -55 -11 -77 -26l-46 89c25 18 66 37 106 37c29 0 58 -7 85 -14c27 -8 52 -14 81 -14c34 0 58 8 77 24z" />
    <glyph glyph-name="macron" unicode="&#xaf;" horiz-adv-x="555" 
d="M456 757v-102h-358v102h358z" />
    <glyph glyph-name="breve" unicode="&#x2d8;" horiz-adv-x="555" 
d="M75 766h101c23 -27 49 -39 105 -39c37 0 80 12 97 39h101c-10 -88 -102 -135 -202 -135c-101 0 -187 48 -202 135z" />
    <glyph glyph-name="dotaccent" unicode="&#x2d9;" horiz-adv-x="555" 
d="M341 777v-142h-127v142h127z" />
    <glyph glyph-name="dieresis" unicode="&#xa8;" horiz-adv-x="555" 
d="M232 777v-142h-126v142h126zM448 777v-142h-126v142h126z" />
    <glyph glyph-name="ring" unicode="&#x2da;" horiz-adv-x="555" 
d="M277 829h1c64 0 116 -53 116 -117s-52 -117 -117 -117s-117 53 -117 117c0 65 52 117 117 117zM277 762h-1c-27 0 -48 -23 -48 -50c0 -26 22 -48 49 -48s49 22 49 49s-21 49 -49 49z" />
    <glyph glyph-name="cedilla" unicode="&#xb8;" horiz-adv-x="555" 
d="M306 0l-28 -54c5 2 11 3 19 3c40 0 82 -30 82 -86c0 -46 -33 -97 -102 -97c-16 0 -89 5 -101 86h64c6 -19 18 -30 37 -30c22 0 38 16 38 41c0 23 -17 37 -37 37c-14 0 -24 -7 -31 -18l-54 28l43 90h70z" />
    <glyph glyph-name="hungarumlaut" unicode="&#x2dd;" horiz-adv-x="555" 
d="M88 678l156 147l75 -76l-167 -137zM303 678l156 147l75 -76l-166 -137z" />
    <glyph glyph-name="ogonek" unicode="&#x2db;" horiz-adv-x="555" 
d="M265 0h70c-27 -18 -64 -40 -64 -78c0 -29 25 -53 54 -53c16 0 30 4 49 12v-72c-21 -7 -43 -15 -78 -15c-76 0 -115 44 -115 97c0 43 27 72 84 109z" />
    <glyph glyph-name="caron" unicode="&#x2c7;" horiz-adv-x="555" 
d="M66 779h131l80 -66l80 66h132l-169 -153h-88z" />
    <glyph glyph-name="emdash" unicode="&#x2014;" horiz-adv-x="1000" 
d="M35 350h930v-129h-930v129z" />
    <glyph glyph-name="AE" unicode="&#xc6;" horiz-adv-x="967" 
d="M-9 0l513 740h407v-131h-250v-168h245v-131h-245v-179h250v-131h-394v159h-241l-105 -159h-180zM340 275h177v259z" />
    <glyph glyph-name="ordfeminine" unicode="&#xaa;" horiz-adv-x="399" 
d="M353 744v-298h-81v43c-21 -40 -59 -52 -95 -52c-87 0 -150 71 -150 158c0 98 71 159 152 159c43 0 74 -19 93 -53v43h81zM108 594v-1c0 -31 26 -79 82 -79c38 0 62 20 74 45c5 12 8 24 8 36c0 14 -2 24 -7 37c-10 25 -37 45 -75 45c-49 0 -82 -39 -82 -83z" />
    <glyph glyph-name="Lslash" unicode="&#x141;" horiz-adv-x="471" 
d="M5 189v149l69 50v352h149v-244l121 87v-149l-121 -88v-215h243v-131h-392v239z" />
    <glyph glyph-name="Oslash" unicode="&#xd8;" horiz-adv-x="851" 
d="M606 711l41 57h145l-92 -125c48 -45 114 -137 114 -273c0 -209 -164 -384 -390 -384c-84 0 -142 23 -178 42l-42 -56h-145l92 124c-52 49 -114 138 -114 274c0 218 169 384 389 384c56 0 120 -12 180 -43zM240 215l283 385c-22 13 -54 23 -97 23
c-151 0 -240 -127 -240 -251c0 -62 22 -120 54 -157zM612 525l-283 -385c22 -12 54 -23 97 -23c153 0 239 132 239 252c0 55 -18 109 -53 156z" />
    <glyph glyph-name="OE" unicode="&#x152;" horiz-adv-x="1108" 
d="M804 609v-168h246v-131h-246v-179h252v-131h-396v48v46c-67 -76 -157 -108 -240 -108c-219 0 -383 172 -383 383c0 202 150 385 385 385c127 0 203 -55 238 -108v47v47h396v-131h-252zM186 369v-1c0 -116 81 -251 235 -251c150 0 239 124 239 255
c-2 139 -95 251 -238 251c-150 0 -236 -124 -236 -254z" />
    <glyph glyph-name="ordmasculine" unicode="&#xba;" horiz-adv-x="399" 
d="M39 594v1c0 78 56 158 160 159c105 0 160 -82 160 -159c0 -79 -59 -158 -160 -158c-103 0 -160 80 -160 157zM120 595v-1c0 -44 36 -80 79 -80c42 0 79 34 79 81c0 46 -35 82 -79 82c-42 0 -79 -34 -79 -82z" />
    <glyph glyph-name="ae" unicode="&#xe6;" horiz-adv-x="1107" 
d="M1070 235h-443c14 -112 105 -140 158 -140c71 0 111 41 136 74h133c-43 -100 -127 -186 -260 -186c-77 0 -141 38 -175 99v-82h-120v82c-31 -61 -101 -99 -182 -99c-189 0 -281 166 -281 291c0 164 118 292 283 292c79 0 152 -38 180 -97v80h120v-79c38 63 103 96 176 96
s142 -29 193 -81c52 -52 93 -139 82 -250zM167 277v-1c0 -100 74 -170 169 -170c92 0 163 76 163 167c0 48 -16 90 -46 121s-71 50 -122 50c-111 0 -164 -99 -164 -167zM630 324h312c-21 93 -83 130 -154 130c-47 0 -86 -15 -116 -47c-27 -28 -37 -58 -42 -83z" />
    <glyph glyph-name="dotlessi" unicode="&#x131;" horiz-adv-x="260" 
d="M65 0v549h131v-549h-131z" />
    <glyph glyph-name="lslash" unicode="&#x142;" horiz-adv-x="311" 
d="M88 265l-65 -44v137l65 44v338h132v-254l73 49v-136l-73 -50v-349h-132v265z" />
    <glyph glyph-name="oslash" unicode="&#xf8;" horiz-adv-x="660" 
d="M492 582h131l-78 -106c50 -54 79 -125 79 -201c0 -145 -105 -292 -294 -292c-61 0 -104 16 -129 29l-33 -46h-132l78 105c-47 48 -78 122 -78 202c0 144 103 292 294 292c63 0 108 -16 130 -28zM200 179l185 252c-14 7 -32 12 -55 12c-92 0 -163 -73 -163 -168
c0 -44 15 -77 33 -96zM461 368l-185 -250c15 -7 32 -12 54 -12c99 0 162 79 162 169c0 43 -14 74 -31 93z" />
    <glyph glyph-name="oe" unicode="&#x153;" horiz-adv-x="1096" 
d="M1059 235h-442c7 -86 72 -140 155 -140c66 0 110 31 136 73h135c-14 -33 -40 -81 -89 -122c-46 -37 -105 -63 -179 -63c-129 0 -195 72 -221 122c-32 -58 -102 -122 -228 -122c-177 0 -290 144 -290 290c0 156 115 293 296 293c99 0 185 -53 221 -120
c32 53 111 119 221 119c81 0 153 -33 205 -86c62 -63 94 -156 80 -244zM167 274v-1c0 -92 71 -168 164 -168c102 0 161 90 161 169c0 84 -64 170 -162 170c-83 0 -163 -65 -163 -170zM621 325h309c-11 66 -69 128 -154 128c-77 0 -143 -50 -155 -128z" />
    <glyph glyph-name="germandbls" unicode="&#xdf;" horiz-adv-x="660" 
d="M63 0v439c0 117 10 172 57 226c52 61 131 92 202 92c136 0 226 -96 226 -205c0 -80 -47 -122 -81 -142c89 -19 157 -98 157 -193c0 -120 -99 -234 -247 -234c-96 1 -155 47 -183 109v-92h-131zM194 474v-270h76c7 -54 43 -98 108 -98c70 0 115 52 115 109
c0 20 -3 54 -31 80c-21 20 -54 34 -126 34h-55v100h32c59 0 103 42 103 101c0 65 -44 105 -108 105c-49 0 -80 -26 -96 -58c-17 -34 -18 -71 -18 -103z" />
    <glyph glyph-name="onesuperior" unicode="&#xb9;" horiz-adv-x="393" 
d="M252 740v-444h-99v358h-83v86h182z" />
    <glyph glyph-name="logicalnot" unicode="&#xac;" horiz-adv-x="600" 
d="M47 424h506v-308h-127v181h-379v127z" />
    <glyph glyph-name="mu" unicode="&#xb5;" horiz-adv-x="616" 
d="M59 -188v737h131v-281c0 -40 4 -82 25 -114c21 -33 54 -48 91 -48c43 0 73 19 92 50c20 32 29 75 29 124v269h131v-549h-125v82c-12 -28 -44 -93 -125 -93c-69 0 -103 38 -118 63v-59v-181h-131z" />
    <glyph glyph-name="trademark" unicode="&#x2122;" horiz-adv-x="990" 
d="M376 296v444h129l119 -308l117 308h128v-444h-95v327l-118 -327h-67l-118 325v-325h-95zM117 296v359h-99v85h299v-85h-99v-359h-101z" />
    <glyph glyph-name="Eth" unicode="&#xd0;" horiz-adv-x="732" 
d="M70 443v297h238c92 0 221 -9 311 -128c54 -68 76 -150 76 -241c0 -209 -122 -371 -364 -371h-261v312h-70v131h70zM219 609v-166h143v-131h-143v-181h105c160 0 222 105 222 238c0 58 -15 120 -50 166c-31 40 -81 74 -171 74h-106z" />
    <glyph glyph-name="onehalf" unicode="&#xbd;" horiz-adv-x="877" 
d="M228 740v-444h-99v358h-82v86h181zM602 740l-316 -740h-109l314 740h111zM831 86v-86h-324v78c49 44 99 88 148 132c43 38 62 65 62 98c0 34 -16 58 -54 58c-43 0 -59 -43 -59 -81h-99c1 32 5 68 28 102c37 54 90 66 136 66c103 0 159 -48 159 -134
c0 -56 -19 -90 -64 -131l-108 -102h175z" />
    <glyph glyph-name="plusminus" unicode="&#xb1;" horiz-adv-x="600" 
d="M237 392v151h126v-151h189v-127h-189v-147h-126v147h-189v127h189zM48 -61v126h504v-126h-504z" />
    <glyph glyph-name="Thorn" unicode="&#xde;" horiz-adv-x="605" 
d="M67 0v740h149v-112l75 1c127 0 175 -18 218 -52c54 -44 84 -115 84 -188s-31 -149 -78 -187c-50 -41 -98 -59 -208 -59h-91v-143h-149zM216 498v-224h88c35 0 67 3 97 19c27 15 49 46 49 93c0 48 -23 78 -51 93c-30 16 -63 19 -101 19h-82z" />
    <glyph glyph-name="onequarter" unicode="&#xbc;" horiz-adv-x="850" 
d="M602 740l-316 -740h-109l314 740h111zM655 318l-108 -162h108v162zM228 740v-444h-99v358h-82v86h181zM753 444v-288h49v-77h-49v-79h-99v79h-214v70l216 295h97z" />
    <glyph glyph-name="divide" unicode="&#xf7;" horiz-adv-x="600" 
d="M362 547v-140h-125v140h125zM49 189v127h502v-127h-502zM362 97v-140h-125v140h125z" />
    <glyph glyph-name="brokenbar" unicode="&#xa6;" horiz-adv-x="555" 
d="M205 675h145v-350h-145v350zM205 175h145v-350h-145v350z" />
    <glyph glyph-name="degree" unicode="&#xb0;" horiz-adv-x="400" 
d="M343 568v-1c0 -79 -63 -142 -143 -142s-143 63 -143 143s63 143 143 143s143 -63 143 -143zM127 568v-1c0 -40 33 -73 73 -73s73 33 73 74c0 40 -33 75 -73 75s-73 -35 -73 -75z" />
    <glyph glyph-name="thorn" unicode="&#xfe;" horiz-adv-x="691" 
d="M64 -192v932h131v-201v-63c36 53 102 89 187 89c188 0 275 -158 275 -295c0 -160 -115 -287 -273 -287c-106 0 -163 53 -189 90v-70v-195h-131zM526 274v1c0 85 -63 168 -168 168c-51 0 -93 -21 -122 -52c-30 -31 -47 -74 -47 -118c0 -42 17 -84 46 -115
c29 -32 71 -53 123 -53c102 0 168 80 168 169z" />
    <glyph glyph-name="threequarters" unicode="&#xbe;" horiz-adv-x="952" 
d="M763 321l-111 -165h111v165zM713 740l-315 -740h-110l315 740h110zM861 444v-288h49v-77h-49v-79h-99v79h-214v70l216 295h97zM41 432h103c4 -33 25 -58 66 -58c40 0 64 24 64 61c0 24 -18 56 -67 56h-48v74h25c32 0 68 17 68 52c0 21 -13 44 -44 45
c-38 0 -46 -26 -48 -47h-101c1 55 26 89 58 108c31 20 69 26 94 26c85 0 140 -56 140 -119c0 -27 -13 -68 -57 -92c52 -17 84 -61 84 -110c0 -79 -76 -141 -169 -141c-55 0 -113 21 -142 62c-20 28 -25 60 -26 83z" />
    <glyph glyph-name="twosuperior" unicode="&#xb2;" horiz-adv-x="393" 
d="M359 382v-86h-324v78c50 44 99 88 148 132c43 38 62 65 62 98c0 34 -15 58 -54 58c-43 0 -59 -43 -59 -81h-99c1 34 5 69 29 104c37 52 90 64 135 64c103 0 159 -48 159 -134c0 -56 -19 -90 -64 -131l-108 -102h175z" />
    <glyph glyph-name="registered" unicode="&#xae;" horiz-adv-x="800" 
d="M402 753h1c213 0 379 -175 379 -383c0 -213 -171 -383 -381 -383c-212 0 -383 170 -383 383c0 207 165 383 384 383zM401 689h-1c-178 0 -313 -145 -313 -319c0 -177 141 -319 314 -319c172 0 312 140 312 319c0 172 -133 319 -312 319zM236 588h182
c68 0 155 -26 155 -120c0 -39 -15 -80 -73 -105c39 -14 61 -39 65 -99c5 -78 5 -86 13 -107h-84c-8 14 -11 71 -14 102c-3 33 -9 72 -90 72h-67v-174h-87v431zM404 526h-81v-137h73c25 1 91 0 91 73c0 64 -58 64 -83 64z" />
    <glyph glyph-name="minus" unicode="&#x2212;" horiz-adv-x="600" 
d="M49 189v127h502v-127h-502z" />
    <glyph glyph-name="eth" unicode="&#xf0;" horiz-adv-x="660" 
d="M330 609l-233 -58v86l136 33c-33 18 -72 31 -112 44l136 38c33 -12 69 -27 114 -51l208 51v-86l-117 -27c37 -26 83 -73 114 -133c31 -58 48 -134 48 -203c0 -188 -124 -318 -294 -319c-160 0 -294 111 -294 289c1 184 128 286 262 286c49 0 102 -19 137 -55
c-7 15 -15 27 -27 42c-23 25 -54 50 -78 63zM167 275v-1c0 -86 58 -167 164 -167c108 0 162 89 162 169c0 81 -60 168 -159 168c-111 0 -167 -83 -167 -169z" />
    <glyph glyph-name="multiply" unicode="&#xd7;" horiz-adv-x="600" 
d="M144 0l-90 90l155 155l-155 154l90 90l155 -154l156 155l91 -91l-156 -154l154 -155l-90 -90l-154 155z" />
    <glyph glyph-name="threesuperior" unicode="&#xb3;" horiz-adv-x="393" 
d="M25 432h103c4 -33 25 -58 66 -58s64 24 64 61c0 24 -18 56 -67 56h-48v74h25c32 0 68 17 68 52c0 21 -13 44 -44 45c-38 0 -46 -26 -48 -47h-101c1 55 26 89 58 108c31 20 69 26 94 26c85 0 140 -56 140 -119c0 -27 -13 -68 -57 -92c52 -17 84 -61 84 -110
c0 -79 -76 -141 -169 -141c-54 0 -112 21 -141 61c-21 29 -26 60 -27 84z" />
    <glyph glyph-name="copyright" unicode="&#xa9;" horiz-adv-x="800" 
d="M402 753h1c213 0 379 -174 379 -383c0 -213 -171 -383 -381 -383c-212 0 -383 170 -383 383c0 208 165 383 384 383zM401 689h-1c-178 0 -313 -145 -313 -319c0 -178 141 -319 314 -319c172 0 312 140 312 319c0 173 -134 319 -312 319zM596 440h-85
c-17 68 -67 82 -105 82c-89 0 -127 -75 -127 -151c0 -89 49 -148 127 -148c16 0 92 3 109 106h87c-9 -114 -91 -182 -199 -182c-124 0 -212 89 -212 225c0 121 78 225 215 225c114 0 184 -78 190 -157z" />
    <glyph glyph-name="Aacute" unicode="&#xc1;" horiz-adv-x="740" 
d="M223 145l-53 -145h-162l300 740h131l293 -740h-163l-54 145h-292zM475 264l-108 300l-105 -300h213zM247 849l240 131l43 -94l-244 -116z" />
    <glyph glyph-name="Acircumflex" unicode="&#xc2;" horiz-adv-x="740" 
d="M223 145l-53 -145h-162l300 740h131l293 -740h-163l-54 145h-292zM475 264l-108 300l-105 -300h213zM416 942l166 -154h-131l-80 67l-80 -67h-133l170 154h88z" />
    <glyph glyph-name="Adieresis" unicode="&#xc4;" horiz-adv-x="740" 
d="M223 145l-53 -145h-162l300 740h131l293 -740h-163l-54 145h-292zM475 264l-108 300l-105 -300h213zM325 933v-142h-126v142h126zM541 933v-142h-126v142h126z" />
    <glyph glyph-name="Agrave" unicode="&#xc0;" horiz-adv-x="740" 
d="M223 145l-53 -145h-162l300 740h131l293 -740h-163l-54 145h-292zM475 264l-108 300l-105 -300h213zM253 973l240 -130l-37 -79l-245 116z" />
    <glyph glyph-name="Aring" unicode="&#xc5;" horiz-adv-x="740" 
d="M223 145l-53 -145h-162l300 740h131l293 -740h-163l-54 145h-292zM475 264l-108 300l-105 -300h213zM370 998h1c64 0 116 -53 116 -117s-52 -117 -117 -117s-117 53 -117 117s52 117 117 117zM370 931h-1c-27 0 -48 -23 -48 -50c0 -26 22 -48 49 -48s49 22 49 49
s-21 49 -49 49z" />
    <glyph glyph-name="Atilde" unicode="&#xc3;" horiz-adv-x="740" 
d="M223 145l-53 -145h-162l300 740h131l293 -740h-163l-54 145h-292zM475 264l-108 300l-105 -300h213zM522 935l46 -88c-33 -23 -68 -37 -109 -37c-21 0 -54 7 -84 14c-31 8 -60 14 -79 14c-33 0 -55 -10 -77 -26l-46 90c25 18 66 36 106 36c29 0 58 -7 85 -14
c27 -8 52 -14 80 -14c35 0 58 8 78 25z" />
    <glyph glyph-name="Ccedilla" unicode="&#xc7;" horiz-adv-x="820" 
d="M438 -13l-22 -41c6 2 12 3 20 3c37 0 82 -30 82 -86c0 -46 -33 -97 -103 -97c-15 0 -88 5 -100 86h64c6 -19 18 -30 36 -30c23 0 39 16 39 41c0 23 -17 37 -37 37c-14 0 -24 -7 -31 -18l-54 28l39 80c-197 26 -333 191 -333 381c0 197 153 383 387 383
c213 -1 334 -158 363 -266h-157c-23 51 -89 134 -207 135c-144 0 -237 -121 -237 -252c0 -135 97 -254 238 -254c132 0 192 104 206 131h157c-44 -148 -181 -256 -350 -261z" />
    <glyph glyph-name="Eacute" unicode="&#xc9;" horiz-adv-x="533" 
d="M70 0v740h415v-131h-266v-168h261v-131h-261v-179h266v-131h-415zM143 865l239 131l43 -94l-244 -116z" />
    <glyph glyph-name="Ecircumflex" unicode="&#xca;" horiz-adv-x="533" 
d="M70 0v740h415v-131h-266v-168h261v-131h-261v-179h266v-131h-415zM312 958l166 -154h-131l-80 67l-80 -67h-132l170 154h87z" />
    <glyph glyph-name="Edieresis" unicode="&#xcb;" horiz-adv-x="533" 
d="M70 0v740h415v-131h-266v-168h261v-131h-261v-179h266v-131h-415zM221 950v-143h-126v143h126zM438 950v-143h-127v143h127z" />
    <glyph glyph-name="Egrave" unicode="&#xc8;" horiz-adv-x="533" 
d="M70 0v740h415v-131h-266v-168h261v-131h-261v-179h266v-131h-415zM150 989l241 -130l-38 -78l-244 115z" />
    <glyph glyph-name="Iacute" unicode="&#xcd;" horiz-adv-x="288" 
d="M70 0v740h149v-740h-149zM44 864l239 131l43 -94l-244 -117z" />
    <glyph glyph-name="Icircumflex" unicode="&#xce;" horiz-adv-x="288" 
d="M70 0v740h149v-740h-149zM190 956l165 -154h-131l-80 67l-79 -67h-133l170 154h88z" />
    <glyph glyph-name="Idieresis" unicode="&#xcf;" horiz-adv-x="288" 
d="M70 0v740h149v-740h-149zM99 948v-142h-126v142h126zM315 948v-142h-126v142h126z" />
    <glyph glyph-name="Igrave" unicode="&#xcc;" horiz-adv-x="288" 
d="M70 0v740h149v-740h-149zM4 988l241 -130l-38 -79l-245 116z" />
    <glyph glyph-name="Ntilde" unicode="&#xd1;" horiz-adv-x="754" 
d="M203 740l340 -513l-3 513h143v-740h-132l-341 512l3 -512h-143v740h133zM528 933l46 -87c-32 -24 -68 -38 -108 -38c-22 0 -54 8 -85 15c-30 8 -60 14 -79 14c-33 0 -55 -10 -76 -26l-46 90c25 17 65 36 106 36c29 0 58 -7 85 -14c26 -8 51 -14 80 -14c35 0 58 8 77 24z
" />
    <glyph glyph-name="Oacute" unicode="&#xd3;" horiz-adv-x="851" 
d="M37 363v1c0 237 182 390 388 390c224 0 389 -174 389 -384s-164 -384 -390 -384c-227 0 -387 179 -387 377zM186 371v-1c0 -135 97 -253 241 -253c150 0 238 130 238 252c0 124 -88 254 -239 254c-148 0 -240 -122 -240 -252zM301 865l240 131l43 -94l-244 -116z" />
    <glyph glyph-name="Ocircumflex" unicode="&#xd4;" horiz-adv-x="851" 
d="M37 363v1c0 237 182 390 388 390c224 0 389 -174 389 -384s-164 -384 -390 -384c-227 0 -387 179 -387 377zM186 371v-1c0 -135 97 -253 241 -253c150 0 238 130 238 252c0 124 -88 254 -239 254c-148 0 -240 -122 -240 -252zM471 957l166 -154h-131l-80 67l-80 -67h-132
l169 154h88z" />
    <glyph glyph-name="Odieresis" unicode="&#xd6;" horiz-adv-x="851" 
d="M37 363v1c0 237 182 390 388 390c224 0 389 -174 389 -384s-164 -384 -390 -384c-227 0 -387 179 -387 377zM186 371v-1c0 -135 97 -253 241 -253c150 0 238 130 238 252c0 124 -88 254 -239 254c-148 0 -240 -122 -240 -252zM380 950v-143h-126v143h126zM596 950v-143
h-126v143h126z" />
    <glyph glyph-name="Ograve" unicode="&#xd2;" horiz-adv-x="851" 
d="M37 363v1c0 237 182 390 388 390c224 0 389 -174 389 -384s-164 -384 -390 -384c-227 0 -387 179 -387 377zM186 371v-1c0 -135 97 -253 241 -253c150 0 238 130 238 252c0 124 -88 254 -239 254c-148 0 -240 -122 -240 -252zM309 989l241 -130l-38 -78l-245 115z" />
    <glyph glyph-name="Otilde" unicode="&#xd5;" horiz-adv-x="851" 
d="M37 363v1c0 237 182 390 388 390c224 0 389 -174 389 -384s-164 -384 -390 -384c-227 0 -387 179 -387 377zM186 371v-1c0 -135 97 -253 241 -253c150 0 238 130 238 252c0 124 -88 254 -239 254c-148 0 -240 -122 -240 -252zM577 933l46 -87c-33 -24 -68 -38 -109 -38
c-21 0 -54 8 -84 15c-31 8 -60 14 -79 14c-33 0 -55 -10 -77 -26l-46 90c25 17 66 36 106 36c29 0 58 -7 85 -14c27 -8 52 -14 81 -14c34 0 58 8 77 24z" />
    <glyph glyph-name="Scaron" unicode="&#x160;" horiz-adv-x="559" 
d="M30 230h148c5 -100 72 -119 104 -119c57 0 101 46 101 98c0 63 -53 79 -156 120c-56 20 -185 66 -185 206c0 142 125 219 245 219c98 0 228 -52 234 -216h-147c-6 34 -19 91 -92 91c-49 0 -91 -34 -91 -84c-1 -55 39 -69 164 -121c113 -49 176 -103 176 -208
c0 -119 -73 -230 -247 -230c-168 0 -255 101 -254 244zM68 949h132l79 -66l80 66h132l-169 -153h-88z" />
    <glyph glyph-name="Uacute" unicode="&#xda;" horiz-adv-x="675" 
d="M68 740h149v-455c0 -37 1 -75 21 -112c18 -32 51 -56 100 -56c50 0 83 23 99 53c21 36 21 75 21 115v455h149v-455c0 -110 -21 -176 -78 -228c-45 -43 -108 -71 -190 -71c-53 0 -138 14 -193 71c-68 65 -78 129 -78 228v455zM240 861l239 131l43 -94l-244 -116z" />
    <glyph glyph-name="Ucircumflex" unicode="&#xdb;" horiz-adv-x="675" 
d="M68 740h149v-455c0 -37 1 -75 21 -112c18 -32 51 -56 100 -56c50 0 83 23 99 53c21 36 21 75 21 115v455h149v-455c0 -110 -21 -176 -78 -228c-45 -43 -108 -71 -190 -71c-53 0 -138 14 -193 71c-68 65 -78 129 -78 228v455zM383 954l166 -153h-131l-80 66l-80 -66h-132
l169 153h88z" />
    <glyph glyph-name="Udieresis" unicode="&#xdc;" horiz-adv-x="675" 
d="M68 740h149v-455c0 -37 1 -75 21 -112c18 -32 51 -56 100 -56c50 0 83 23 99 53c21 36 21 75 21 115v455h149v-455c0 -110 -21 -176 -78 -228c-45 -43 -108 -71 -190 -71c-53 0 -138 14 -193 71c-68 65 -78 129 -78 228v455zM292 946v-142h-126v142h126zM509 946v-142
h-127v142h127z" />
    <glyph glyph-name="Ugrave" unicode="&#xd9;" horiz-adv-x="675" 
d="M68 740h149v-455c0 -37 1 -75 21 -112c18 -32 51 -56 100 -56c50 0 83 23 99 53c21 36 21 75 21 115v455h149v-455c0 -110 -21 -176 -78 -228c-45 -43 -108 -71 -190 -71c-53 0 -138 14 -193 71c-68 65 -78 129 -78 228v455zM187 986l241 -131l-38 -78l-244 115z" />
    <glyph glyph-name="Yacute" unicode="&#xdd;" horiz-adv-x="624" 
d="M238 0v265l-227 475h161l140 -336l141 336h160l-226 -475v-265h-149zM221 861l240 131l43 -94l-244 -116z" />
    <glyph glyph-name="Ydieresis" unicode="&#x178;" horiz-adv-x="624" 
d="M238 0v265l-227 475h161l140 -336l141 336h160l-226 -475v-265h-149zM267 946v-142h-127v142h127zM483 946v-142h-127v142h127z" />
    <glyph glyph-name="Zcaron" unicode="&#x17d;" horiz-adv-x="499" 
d="M480 621l-281 -490h287v-131h-469v97l296 512h-300v131h467v-119zM39 942h132l79 -67l80 67h132l-169 -153h-88z" />
    <glyph glyph-name="aacute" unicode="&#xe1;" horiz-adv-x="696" 
d="M631 549v-549h-131v79c-35 -64 -108 -96 -185 -96c-176 0 -279 137 -279 292c0 173 125 291 279 291c100 0 161 -53 185 -97v80h131zM167 273v-1c0 -68 49 -167 167 -167c73 0 121 38 146 88c13 24 19 50 21 77c1 26 -4 53 -15 77c-23 52 -74 97 -153 97
c-106 0 -166 -86 -166 -171zM223 692l239 132l44 -95l-244 -116z" />
    <glyph glyph-name="acircumflex" unicode="&#xe2;" horiz-adv-x="696" 
d="M631 549v-549h-131v79c-35 -64 -108 -96 -185 -96c-176 0 -279 137 -279 292c0 173 125 291 279 291c100 0 161 -53 185 -97v80h131zM167 273v-1c0 -68 49 -167 167 -167c73 0 121 38 146 88c13 24 19 50 21 77c1 26 -4 53 -15 77c-23 52 -74 97 -153 97
c-106 0 -166 -86 -166 -171zM383 786l166 -154h-131l-80 67l-80 -67h-132l169 154h88z" />
    <glyph glyph-name="adieresis" unicode="&#xe4;" horiz-adv-x="696" 
d="M631 549v-549h-131v79c-35 -64 -108 -96 -185 -96c-176 0 -279 137 -279 292c0 173 125 291 279 291c100 0 161 -53 185 -97v80h131zM167 273v-1c0 -68 49 -167 167 -167c73 0 121 38 146 88c13 24 19 50 21 77c1 26 -4 53 -15 77c-23 52 -74 97 -153 97
c-106 0 -166 -86 -166 -171zM290 777v-142h-127v142h127zM506 777v-142h-126v142h126z" />
    <glyph glyph-name="agrave" unicode="&#xe0;" horiz-adv-x="696" 
d="M631 549v-549h-131v79c-35 -64 -108 -96 -185 -96c-176 0 -279 137 -279 292c0 173 125 291 279 291c100 0 161 -53 185 -97v80h131zM167 273v-1c0 -68 49 -167 167 -167c73 0 121 38 146 88c13 24 19 50 21 77c1 26 -4 53 -15 77c-23 52 -74 97 -153 97
c-106 0 -166 -86 -166 -171zM221 817l241 -131l-38 -78l-245 116z" />
    <glyph glyph-name="aring" unicode="&#xe5;" horiz-adv-x="696" 
d="M631 549v-549h-131v79c-35 -64 -108 -96 -185 -96c-176 0 -279 137 -279 292c0 173 125 291 279 291c100 0 161 -53 185 -97v80h131zM167 273v-1c0 -68 49 -167 167 -167c73 0 121 38 146 88c13 24 19 50 21 77c1 26 -4 53 -15 77c-23 52 -74 97 -153 97
c-106 0 -166 -86 -166 -171zM331 829h1c64 0 116 -53 116 -117s-52 -117 -117 -117s-117 53 -117 117c0 65 52 117 117 117zM331 762h-1c-28 0 -48 -23 -48 -50c0 -26 22 -48 49 -48s49 22 49 49s-21 49 -49 49z" />
    <glyph glyph-name="atilde" unicode="&#xe3;" horiz-adv-x="696" 
d="M631 549v-549h-131v79c-35 -64 -108 -96 -185 -96c-176 0 -279 137 -279 292c0 173 125 291 279 291c100 0 161 -53 185 -97v80h131zM167 273v-1c0 -68 49 -167 167 -167c73 0 121 38 146 88c13 24 19 50 21 77c1 26 -4 53 -15 77c-23 52 -74 97 -153 97
c-106 0 -166 -86 -166 -171zM493 762l46 -87c-33 -24 -68 -38 -109 -38c-21 0 -54 8 -85 15c-30 7 -60 14 -79 14c-33 0 -55 -11 -76 -26l-46 89c25 18 66 37 106 37c29 0 58 -7 85 -14c27 -8 52 -14 80 -14c35 0 58 8 78 24z" />
    <glyph glyph-name="ccedilla" unicode="&#xe7;" horiz-adv-x="644" 
d="M341 -15l-20 -39c6 2 12 3 20 3c37 0 81 -30 81 -86c0 -46 -33 -97 -102 -97c-16 0 -88 5 -100 86h64c6 -19 17 -30 36 -30c23 0 38 16 39 41c-1 23 -17 37 -37 37c-14 0 -24 -7 -31 -18l-54 28l37 79c-137 23 -239 140 -239 286c0 162 125 291 289 291
c138 0 255 -87 287 -221h-134c-23 55 -76 96 -148 96c-48 1 -85 -16 -117 -47c-28 -28 -45 -72 -45 -119c0 -99 69 -169 162 -169c82 0 128 49 148 94h134c-31 -118 -133 -210 -270 -215z" />
    <glyph glyph-name="eacute" unicode="&#xe9;" horiz-adv-x="639" 
d="M604 231h-442c6 -88 84 -137 159 -136c64 0 107 29 132 74h135c-26 -61 -65 -107 -111 -138c-46 -32 -100 -48 -157 -48c-169 0 -290 137 -290 290c0 156 122 293 288 293c82 0 154 -31 205 -84c67 -69 92 -155 81 -251zM164 331h311c-5 52 -60 125 -156 124
c-97 0 -150 -70 -155 -124zM194 692l240 132l43 -95l-244 -116z" />
    <glyph glyph-name="ecircumflex" unicode="&#xea;" horiz-adv-x="639" 
d="M604 231h-442c6 -88 84 -137 159 -136c64 0 107 29 132 74h135c-26 -61 -65 -107 -111 -138c-46 -32 -100 -48 -157 -48c-169 0 -290 137 -290 290c0 156 122 293 288 293c82 0 154 -31 205 -84c67 -69 92 -155 81 -251zM164 331h311c-5 52 -60 125 -156 124
c-97 0 -150 -70 -155 -124zM366 786l165 -154h-131l-80 67l-79 -67h-133l170 154h88z" />
    <glyph glyph-name="edieresis" unicode="&#xeb;" horiz-adv-x="639" 
d="M604 231h-442c6 -88 84 -137 159 -136c64 0 107 29 132 74h135c-26 -61 -65 -107 -111 -138c-46 -32 -100 -48 -157 -48c-169 0 -290 137 -290 290c0 156 122 293 288 293c82 0 154 -31 205 -84c67 -69 92 -155 81 -251zM164 331h311c-5 52 -60 125 -156 124
c-97 0 -150 -70 -155 -124zM273 777v-142h-126v142h126zM490 777v-142h-127v142h127z" />
    <glyph glyph-name="egrave" unicode="&#xe8;" horiz-adv-x="639" 
d="M604 231h-442c6 -88 84 -137 159 -136c64 0 107 29 132 74h135c-26 -61 -65 -107 -111 -138c-46 -32 -100 -48 -157 -48c-169 0 -290 137 -290 290c0 156 122 293 288 293c82 0 154 -31 205 -84c67 -69 92 -155 81 -251zM164 331h311c-5 52 -60 125 -156 124
c-97 0 -150 -70 -155 -124zM203 817l241 -131l-37 -78l-245 116z" />
    <glyph glyph-name="iacute" unicode="&#xed;" horiz-adv-x="260" 
d="M65 0v549h131v-549h-131zM25 692l240 132l43 -95l-244 -116z" />
    <glyph glyph-name="icircumflex" unicode="&#xee;" horiz-adv-x="260" 
d="M65 0v549h131v-549h-131zM176 786l166 -154h-131l-80 67l-80 -67h-132l169 154h88z" />
    <glyph glyph-name="idieresis" unicode="&#xef;" horiz-adv-x="260" 
d="M65 0v549h131v-549h-131zM85 777v-142h-126v142h126zM302 777v-142h-127v142h127z" />
    <glyph glyph-name="igrave" unicode="&#xec;" horiz-adv-x="260" 
d="M65 0v549h131v-549h-131zM-7 817l241 -131l-38 -78l-245 116z" />
    <glyph glyph-name="ntilde" unicode="&#xf1;" horiz-adv-x="634" 
d="M65 0v549h123c0 -24 0 -47 -1 -73c24 43 73 91 171 90c179 -1 213 -138 213 -235v-331h-131v298c0 82 -27 145 -119 145c-93 -1 -125 -63 -125 -140v-303h-131zM469 762l46 -87c-33 -24 -68 -38 -108 -38c-22 0 -55 8 -85 15c-31 7 -60 14 -79 14c-33 0 -55 -11 -77 -26
l-46 89c25 18 66 37 106 37c29 0 58 -7 85 -14c27 -8 52 -14 81 -14c34 0 58 8 77 24z" />
    <glyph glyph-name="oacute" unicode="&#xf3;" horiz-adv-x="660" 
d="M36 275v1c0 140 103 289 294 289s294 -149 294 -290c0 -142 -103 -291 -294 -291s-294 149 -294 291zM167 275v-1c0 -96 73 -167 163 -167s162 71 162 168s-72 168 -162 168s-163 -71 -163 -168zM205 692l239 132l43 -95l-244 -116z" />
    <glyph glyph-name="ocircumflex" unicode="&#xf4;" horiz-adv-x="660" 
d="M36 275v1c0 140 103 289 294 289s294 -149 294 -290c0 -142 -103 -291 -294 -291s-294 149 -294 291zM167 275v-1c0 -96 73 -167 163 -167s162 71 162 168s-72 168 -162 168s-163 -71 -163 -168zM376 786l165 -154h-131l-80 67l-79 -67h-133l170 154h88z" />
    <glyph glyph-name="odieresis" unicode="&#xf6;" horiz-adv-x="660" 
d="M36 275v1c0 140 103 289 294 289s294 -149 294 -290c0 -142 -103 -291 -294 -291s-294 149 -294 291zM167 275v-1c0 -96 73 -167 163 -167s162 71 162 168s-72 168 -162 168s-163 -71 -163 -168zM285 777v-142h-126v142h126zM501 777v-142h-126v142h126z" />
    <glyph glyph-name="ograve" unicode="&#xf2;" horiz-adv-x="660" 
d="M36 275v1c0 140 103 289 294 289s294 -149 294 -290c0 -142 -103 -291 -294 -291s-294 149 -294 291zM167 275v-1c0 -96 73 -167 163 -167s162 71 162 168s-72 168 -162 168s-163 -71 -163 -168zM214 817l240 -131l-37 -78l-245 116z" />
    <glyph glyph-name="otilde" unicode="&#xf5;" horiz-adv-x="660" 
d="M36 275v1c0 140 103 289 294 289s294 -149 294 -290c0 -142 -103 -291 -294 -291s-294 149 -294 291zM167 275v-1c0 -96 73 -167 163 -167s162 71 162 168s-72 168 -162 168s-163 -71 -163 -168zM482 762l46 -87c-33 -24 -68 -38 -109 -38c-21 0 -54 8 -85 15
c-30 7 -60 14 -79 14c-33 0 -55 -11 -76 -26l-46 89c25 18 66 37 106 37c29 0 58 -7 85 -14c27 -8 52 -14 80 -14c35 0 58 8 78 24z" />
    <glyph glyph-name="scaron" unicode="&#x161;" horiz-adv-x="481" 
d="M432 401h-129c-1 29 -16 59 -67 59c-44 0 -65 -28 -65 -55c1 -35 41 -54 93 -69c88 -24 183 -50 184 -168c2 -113 -93 -185 -208 -185c-85 0 -200 44 -210 177h131c5 -59 56 -71 81 -71c41 0 76 27 75 64c0 47 -41 60 -142 95c-74 23 -134 64 -135 143
c0 108 91 175 197 175c74 0 184 -33 195 -165zM28 779h132l80 -66l80 66h132l-169 -153h-88z" />
    <glyph glyph-name="uacute" unicode="&#xfa;" horiz-adv-x="636" 
d="M571 549v-549h-123v73c-23 -43 -72 -91 -171 -90c-180 1 -214 138 -214 234v332h131v-299c0 -81 27 -145 120 -144c94 0 126 62 126 140v303h131zM220 692l239 132l44 -95l-244 -116z" />
    <glyph glyph-name="ucircumflex" unicode="&#xfb;" horiz-adv-x="636" 
d="M571 549v-549h-123v73c-23 -43 -72 -91 -171 -90c-180 1 -214 138 -214 234v332h131v-299c0 -81 27 -145 120 -144c94 0 126 62 126 140v303h131zM364 786l165 -154h-131l-79 67l-80 -67h-133l170 154h88z" />
    <glyph glyph-name="udieresis" unicode="&#xfc;" horiz-adv-x="636" 
d="M571 549v-549h-123v73c-23 -43 -72 -91 -171 -90c-180 1 -214 138 -214 234v332h131v-299c0 -81 27 -145 120 -144c94 0 126 62 126 140v303h131zM273 777v-142h-126v142h126zM489 777v-142h-126v142h126z" />
    <glyph glyph-name="ugrave" unicode="&#xf9;" horiz-adv-x="636" 
d="M571 549v-549h-123v73c-23 -43 -72 -91 -171 -90c-180 1 -214 138 -214 234v332h131v-299c0 -81 27 -145 120 -144c94 0 126 62 126 140v303h131zM168 817l241 -131l-38 -78l-245 116z" />
    <glyph glyph-name="yacute" unicode="&#xfd;" horiz-adv-x="551" 
d="M121 -192l90 213l-207 528h140l134 -365l132 365h140l-289 -741h-140zM185 692l239 132l44 -95l-244 -116z" />
    <glyph glyph-name="ydieresis" unicode="&#xff;" horiz-adv-x="551" 
d="M121 -192l90 213l-207 528h140l134 -365l132 365h140l-289 -741h-140zM230 777v-142h-126v142h126zM447 777v-142h-127v142h127z" />
    <glyph glyph-name="zcaron" unicode="&#x17e;" horiz-adv-x="435" 
d="M14 0v91l258 357h-253v101h396v-101l-245 -347h249v-101h-405zM19 775h132l79 -66l80 66h132l-169 -153h-88z" />
    <glyph glyph-name="Delta" unicode="&#x2206;" horiz-adv-x="707" 
d="M28 0v78l248 678h160l240 -676v-80h-648zM167 108h365l-119 316c-17 56 -49 143 -61 189h-3c-9 -37 -39 -115 -56 -173z" />
    <glyph glyph-name="Omega" unicode="&#x2126;" horiz-adv-x="765" 
d="M188 108v3c-66 60 -132 162 -132 299c0 187 133 342 329 342c208 0 321 -177 321 -336c0 -138 -66 -245 -134 -305v-3h149v-108h-284v80c68 44 133 140 133 308c0 131 -65 253 -186 253c-116 0 -192 -110 -192 -258c0 -153 64 -262 133 -303v-80h-284v108h147z" />
    <glyph glyph-name="pi" unicode="&#x3c0;" horiz-adv-x="645" 
d="M620 443h-76v-284c0 -79 6 -126 14 -159h-130c-13 22 -19 76 -19 152v291h-150c-5 -117 -31 -335 -69 -443h-131c36 122 65 325 67 443c-51 0 -82 -4 -106 -11l-15 88c27 21 83 36 175 36h451z" />
    <glyph glyph-name="Euro" unicode="&#x20ac;" horiz-adv-x="560" 
d="M561 651l-43 -121c-25 58 -77 99 -172 99c-85 0 -120 -77 -120 -149h273l-34 -95h-239v-55h219l-35 -95h-181c10 -59 42 -124 117 -124c65 0 133 27 159 72v-146c-14 -15 -71 -52 -159 -52c-158 0 -240 114 -251 250h-91l34 95h55v55h-89l34 95h56c0 74 28 150 68 196
c43 49 105 79 184 79c116 0 194 -67 215 -104z" />
    <glyph glyph-name="estimated" unicode="&#x212e;" horiz-adv-x="926" 
d="M889 359h-691c-3 0 -5 -1 -5 -4v-209c0 -9 3 -17 9 -24c67 -69 159 -114 261 -114c110 0 208 50 275 127h61c-76 -89 -200 -148 -337 -148c-235 0 -426 171 -426 383s191 384 426 384c236 0 427 -172 427 -384v-11zM732 387v210c0 9 -3 18 -10 25
c-67 66 -158 109 -259 109s-193 -45 -260 -113c-7 -7 -10 -16 -10 -26v-205c0 -3 2 -7 5 -7h530c3 0 4 4 4 7z" />
    <glyph glyph-name="partialdiff" unicode="&#x2202;" horiz-adv-x="617" 
d="M110 674l-38 99c33 25 97 61 197 61c158 0 296 -137 296 -404c0 -261 -111 -439 -302 -439c-151 0 -223 137 -223 251c0 169 104 277 232 277c89 0 144 -59 160 -87h1c1 9 1 27 1 36c0 137 -73 256 -182 256c-66 0 -113 -28 -142 -50zM276 101h1c82 0 132 118 144 220
c-11 34 -54 91 -122 91c-74 0 -126 -82 -126 -174c0 -76 41 -137 103 -137z" />
    <glyph glyph-name="product" unicode="&#x220f;" horiz-adv-x="774" 
d="M747 619h-110v-721h-133v721h-236v-721h-132v721h-110v121h721v-121z" />
    <glyph glyph-name="summation" unicode="&#x2211;" horiz-adv-x="600" 
d="M580 -102h-556v85l261 336l-251 328v93h528v-113h-347v-4l221 -283l-245 -316v-3h389v-123z" />
    <glyph glyph-name="uni2219" unicode="&#x2219;" horiz-adv-x="305" 
d="M221 327v-147h-137v147h137z" />
    <glyph glyph-name="radical" unicode="&#x221a;" horiz-adv-x="635" 
d="M645 887l-242 -1036h-107l-161 465l-79 -31l-22 74l181 73l113 -341c8 -33 16 -67 21 -91h2c4 22 10 60 17 97l184 790h93z" />
    <glyph glyph-name="infinity" unicode="&#x221e;" horiz-adv-x="830" 
d="M779 306v-1c0 -115 -84 -184 -171 -184c-62 0 -120 29 -191 121c-56 -67 -112 -121 -198 -121c-88 0 -168 73 -168 179c0 107 76 182 177 182c79 0 137 -48 192 -119c46 52 99 120 194 119c94 0 165 -70 165 -176zM228 194h2c60 0 106 55 146 103
c-44 59 -82 114 -152 114c-61 0 -98 -48 -98 -112c0 -57 43 -105 102 -105zM607 411h-2c-65 0 -113 -69 -147 -107c64 -80 99 -110 152 -110c60 0 94 58 94 106c0 65 -39 111 -97 111z" />
    <glyph glyph-name="integral" unicode="&#x222b;" horiz-adv-x="420" 
d="M398 902l-14 -91c-10 5 -24 9 -39 9c-20 0 -40 -8 -53 -27c-23 -29 -30 -89 -30 -178c0 -172 16 -320 16 -509c0 -102 -16 -171 -39 -213c-29 -54 -84 -76 -136 -76c-34 0 -67 9 -83 18l17 94c10 -4 27 -11 47 -11c17 0 36 6 47 21c19 26 30 70 30 165
c0 193 -16 344 -16 524c0 123 18 190 64 238c30 34 78 49 124 49c26 0 53 -7 65 -13z" />
    <glyph glyph-name="approxequal" unicode="&#x2248;" horiz-adv-x="591" 
d="M501 479l47 -44c-34 -64 -84 -109 -145 -109c-43 0 -72 14 -121 43c-31 19 -57 35 -92 35c-48 0 -75 -38 -101 -76l-48 43c31 62 89 109 155 109c52 0 86 -24 114 -40c38 -22 60 -38 93 -38c42 0 69 30 98 77zM501 281l47 -44c-34 -63 -83 -109 -146 -109
c-43 0 -72 15 -120 42c-32 20 -58 37 -92 37c-48 0 -75 -39 -101 -78l-48 44c31 62 90 109 155 109c52 0 86 -24 113 -39c34 -19 59 -39 94 -39c42 0 67 30 98 77z" />
    <glyph glyph-name="notequal" unicode="&#x2260;" horiz-adv-x="591" 
d="M434 545l-42 -95h147v-77h-177l-63 -145h240v-77h-270l-54 -122l-61 25l43 97h-145v77h175l63 145h-238v77h268l53 120z" />
    <glyph glyph-name="lessequal" unicode="&#x2264;" horiz-adv-x="591" 
d="M536 105l-479 238v83l479 238v-90l-402 -188v-2l402 -189v-90zM540 -13h-487v79h487v-79z" />
    <glyph glyph-name="greaterequal" unicode="&#x2265;" horiz-adv-x="591" 
d="M59 664l479 -238v-83l-479 -238v90l401 189v2l-401 188v90zM538 -13h-484v79h484v-79z" />
    <glyph glyph-name="lozenge" unicode="&#x25ca;" horiz-adv-x="635" 
d="M582 369l-214 -421h-106l-208 421l213 422h106zM464 366l-124 256c-8 19 -16 44 -20 62h-4c-5 -19 -12 -42 -20 -62l-125 -250l125 -259c8 -21 16 -45 19 -59h4c4 15 13 46 19 57z" />
    <glyph glyph-name="uni02C9" unicode="&#x2c9;" horiz-adv-x="555" 
d="M456 757v-102h-358v102h358z" />
    <glyph glyph-name="uni00AD" unicode="&#xad;" horiz-adv-x="277" 
d="M0 350h277v-129h-277v129z" />
    <glyph glyph-name="uni03A9" unicode="&#x3a9;" horiz-adv-x="765" 
d="M188 108v3c-66 60 -132 162 -132 299c0 187 133 342 329 342c208 0 321 -177 321 -336c0 -138 -66 -245 -134 -305v-3h149v-108h-284v80c68 44 133 140 133 308c0 131 -65 253 -186 253c-116 0 -192 -110 -192 -258c0 -153 64 -262 133 -303v-80h-284v108h147z" />
    <glyph glyph-name="uni00A0" unicode="&#xa0;" horiz-adv-x="301" 
 />
    <glyph glyph-name="afii61289" unicode="&#x2113;" horiz-adv-x="552" 
d="M477 194l55 -56c-56 -109 -139 -148 -223 -148c-128 0 -182 80 -193 174c-1 4 -1 8 -1 12c-18 -13 -37 -29 -56 -43l-34 71c32 26 62 47 88 73v266c0 190 88 270 192 270s150 -84 150 -188c0 -126 -82 -244 -212 -368v-44c2 -77 44 -116 96 -116c59 0 108 49 138 97z
M243 548v-170c74 84 127 175 127 252c0 54 -16 88 -59 88c-32 0 -68 -38 -68 -170z" />
    <glyph glyph-name="uni03BC" unicode="&#x3bc;" horiz-adv-x="616" 
d="M59 -188v737h131v-281c0 -40 4 -82 25 -114c21 -33 54 -48 91 -48c43 0 73 19 92 50c20 32 29 75 29 124v269h131v-549h-125v82c-12 -28 -44 -93 -125 -93c-69 0 -103 38 -118 63v-59v-181h-131z" />
    <glyph glyph-name="uni2215" unicode="&#x2215;" horiz-adv-x="180" 
d="M-123 0l315 740h110l-316 -740h-109z" />
    </font>
</defs>
</svg>
